<svg width="606" height="139" viewBox="0 0 606 139" fill="none" xmlns="http://www.w3.org/2000/svg">
<path d="M3.84375 26.0938C3.84375 26.0938 4.46875 26.0521 5.71875 25.9688C6.96875 25.8646 8.60417 25.7396 10.625 25.5938C12.6458 25.4479 14.8438 25.3125 17.2188 25.1875C19.5938 25.0417 21.9271 24.9271 24.2188 24.8438C26.5312 24.7396 28.5729 24.6875 30.3438 24.6875C34.4271 24.6875 37.9688 25.4583 40.9688 27C43.9688 28.5417 46.4479 30.6042 48.4062 33.1875C50.3646 35.75 51.8229 38.5938 52.7812 41.7188C53.7396 44.8229 54.2188 47.9479 54.2188 51.0938C54.2188 55.0104 53.5521 58.5104 52.2188 61.5938C50.8854 64.6771 49.0208 67.2917 46.625 69.4375C44.25 71.5833 41.4479 73.2188 38.2188 74.3438C35.0104 75.4479 31.5312 76 27.7812 76H3.84375V26.0938ZM23.2812 60.9688C24.3854 60.0312 25.5729 59.0938 26.8438 58.1562C28.1146 57.2188 29.3125 56.2188 30.4375 55.1562C31.5833 54.0938 32.5104 52.9062 33.2188 51.5938C33.9479 50.2604 34.3125 48.7292 34.3125 47C34.3125 45.8542 34.0729 44.6875 33.5938 43.5C33.1146 42.3125 32.4167 41.3229 31.5 40.5312C30.6042 39.7188 29.4896 39.3125 28.1562 39.3125C27.1979 39.3125 26.2917 39.5729 25.4375 40.0938C24.6042 40.6146 23.8854 41.2292 23.2812 41.9375V60.9688ZM60.4062 26.0938H96.375V40.4688H79.8438V44.5625H96.3125V56.8125H79.8438V61.5312H97.4688V76H60.4062V26.0938ZM104.906 26.0938H124.344V60.9688H141.125V76H104.906V26.0938ZM165.406 76H145.969V26.0938H165.406V76ZM170.219 76L195.031 28.625C195.635 27.4792 196.573 26.5938 197.844 25.9688C199.115 25.3229 200.438 25 201.812 25C203.042 25 204.24 25.2812 205.406 25.8438C206.594 26.4062 207.51 27.2708 208.156 28.4375L234.781 76H209.438L207.469 71.0625H193.969L192.281 76H170.219ZM195.5 61.1562H205.594L200.812 47.6562L195.5 61.1562ZM285.344 26.0938H304.812V76H285.344V57.5625L274.969 58.4688V76H255.531V26.0938H274.969V44.125L285.344 43.2812V26.0938ZM338.719 77.2188C335.198 77.2188 331.781 76.6042 328.469 75.375C325.177 74.125 322.208 72.3438 319.562 70.0312C316.938 67.7188 314.854 64.9479 313.312 61.7188C311.771 58.4688 311 54.8438 311 50.8438C311 46.9271 311.719 43.3646 313.156 40.1562C314.615 36.9479 316.625 34.1875 319.188 31.875C321.75 29.5625 324.698 27.7917 328.031 26.5625C331.385 25.3125 334.948 24.6875 338.719 24.6875C342.677 24.6875 346.365 25.2917 349.781 26.5C353.219 27.6875 356.219 29.4271 358.781 31.7188C361.365 33.9896 363.375 36.7604 364.812 40.0312C366.271 43.2812 367 46.9688 367 51.0938C367 55.0938 366.24 58.7083 364.719 61.9375C363.198 65.1458 361.115 67.8854 358.469 70.1562C355.823 72.4271 352.802 74.1771 349.406 75.4062C346.031 76.6146 342.469 77.2188 338.719 77.2188ZM336.531 60.9688C337.635 60.9688 338.812 60.4375 340.062 59.375C341.312 58.2917 342.49 56.9167 343.594 55.25C344.698 53.5833 345.594 51.8229 346.281 49.9688C346.99 48.1146 347.344 46.4062 347.344 44.8438C347.344 43.3854 346.958 42.1771 346.188 41.2188C345.417 40.2604 344.115 39.7812 342.281 39.7812C341.156 39.7812 339.948 40.3125 338.656 41.375C337.385 42.4167 336.188 43.7708 335.062 45.4375C333.958 47.0833 333.052 48.8333 332.344 50.6875C331.635 52.5208 331.281 54.2188 331.281 55.7812C331.281 57.2812 331.677 58.5208 332.469 59.5C333.281 60.4792 334.635 60.9688 336.531 60.9688ZM373.219 26.0938H392.656V60.9688H409.438V76H373.219V26.0938ZM414.281 26.0938H421.438L445.562 48.75L470.344 26.0938H477.25V76H456.719V59.8125L443.969 73.8125L431.562 60.1875V76H414.281V26.0938ZM482.156 76L506.969 28.625C507.573 27.4792 508.51 26.5938 509.781 25.9688C511.052 25.3229 512.375 25 513.75 25C514.979 25 516.177 25.2812 517.344 25.8438C518.531 26.4062 519.448 27.2708 520.094 28.4375L546.719 76H521.375L519.406 71.0625H505.906L504.219 76H482.156ZM507.438 61.1562H517.531L512.75 47.6562L507.438 61.1562ZM551.469 26.0938H556.531L583.781 45.5312V26.0938H601.375V76H594.656L569 58.8438V76H551.469V26.0938Z" fill="#0B5989"/>
<path d="M280.5 60L289.368 87.2938L318.067 87.2938L294.849 104.162L303.718 131.456L280.5 114.588L257.282 131.456L266.151 104.162L242.933 87.2938L271.632 87.2938L280.5 60Z" fill="#FFE375"/>
</svg>
